<?xml version="1.0" standalone="no"?>
<!DOCTYPE svg PUBLIC "-//W3C//DTD SVG 20010904//EN"
 "http://www.w3.org/TR/2001/REC-SVG-20010904/DTD/svg10.dtd">
<svg version="1.0" xmlns="http://www.w3.org/2000/svg"
 width="1080.000000pt" height="1080.000000pt" viewBox="0 0 1080.000000 1080.000000"
 preserveAspectRatio="xMidYMid meet">

<g transform="translate(0.000000,1080.000000) scale(0.100000,-0.100000)"
fill="#000000" stroke="none">
<path d="M5765 10791 c-6 -5 -50 -17 -100 -26 -49 -9 -119 -29 -155 -45 -36
-16 -78 -31 -95 -35 -16 -4 -52 -18 -80 -32 -27 -14 -67 -31 -88 -39 -20 -7
-56 -26 -80 -42 -23 -16 -52 -32 -64 -36 -12 -4 -37 -17 -56 -30 -19 -13 -46
-27 -58 -31 -13 -4 -45 -23 -70 -41 -26 -19 -51 -34 -56 -34 -6 0 -38 -18 -72
-40 -34 -22 -64 -40 -67 -40 -19 0 -209 -155 -283 -231 -76 -77 -95 -104 -146
-206 -32 -65 -68 -131 -80 -148 -12 -16 -34 -57 -49 -90 -15 -33 -35 -71 -44
-85 -21 -32 -73 -174 -108 -295 -10 -33 -28 -81 -41 -107 -12 -26 -23 -53 -23
-60 0 -7 -35 -85 -79 -173 -84 -170 -124 -267 -165 -405 -14 -47 -36 -116 -50
-155 -30 -82 -34 -182 -11 -285 21 -97 19 -151 -7 -190 -23 -32 -125 -96 -137
-85 -3 3 -11 33 -18 65 -15 78 -34 115 -89 178 -52 60 -106 81 -259 102 -49 7
-136 23 -191 36 -123 29 -139 29 -234 3 -41 -11 -89 -24 -106 -28 -24 -6 -84
-38 -84 -45 0 -7 52 -101 69 -125 12 -17 35 -65 50 -108 43 -120 87 -203 106
-203 6 0 16 -9 23 -21 7 -12 16 -19 19 -16 3 3 28 -3 55 -14 28 -11 73 -21
101 -23 39 -3 55 -9 69 -27 10 -13 27 -34 38 -45 14 -15 21 -43 26 -95 6 -71
26 -115 45 -103 5 3 12 -2 15 -10 3 -8 21 -20 39 -26 51 -17 54 -57 14 -177
-18 -54 -45 -123 -61 -155 -15 -32 -28 -63 -28 -68 0 -5 -18 -47 -39 -92 -22
-46 -45 -108 -52 -138 -16 -71 -50 -169 -60 -176 -5 -3 -9 -16 -9 -30 0 -13
-4 -32 -10 -42 -5 -9 -25 -51 -45 -92 -70 -143 -94 -185 -121 -206 l-26 -22 4
-120 c2 -70 9 -126 16 -134 6 -8 14 -33 18 -56 4 -23 10 -42 15 -42 17 0 9
-22 -22 -66 -31 -42 -32 -46 -26 -120 5 -68 3 -80 -16 -106 -37 -51 -61 -334
-31 -376 l16 -23 14 26 c8 15 14 33 14 40 0 7 6 18 14 24 20 17 26 -6 26 -95
0 -87 15 -117 66 -134 42 -14 43 -32 4 -77 -22 -25 -30 -44 -30 -73 0 -49 15
-90 40 -107 11 -8 20 -21 20 -29 0 -8 5 -14 10 -14 6 0 20 -19 30 -42 25 -54
27 -186 5 -249 -9 -24 -13 -50 -9 -59 4 -8 8 -47 9 -85 1 -54 8 -83 28 -123
15 -30 27 -60 27 -68 0 -30 -84 -154 -125 -183 -36 -27 -135 -126 -135 -136 0
-13 -68 -50 -76 -42 -4 4 -7 14 -8 24 -2 19 -30 71 -56 104 -8 11 -39 26 -69
34 -30 8 -59 21 -63 30 -5 8 -19 27 -32 42 -21 24 -29 26 -84 25 -39 -1 -80
-10 -114 -25 -46 -21 -54 -29 -64 -63 -6 -21 -18 -55 -27 -74 -14 -33 -14 -39
3 -77 27 -60 56 -64 212 -26 81 20 98 11 98 -49 0 -29 -7 -45 -28 -66 -15 -15
-39 -45 -54 -67 -15 -22 -40 -55 -55 -74 -27 -33 -28 -37 -28 -160 1 -69 6
-164 11 -211 10 -83 8 -113 -18 -197 -10 -36 -10 -50 2 -85 8 -24 14 -85 14
-139 1 -80 4 -100 20 -117 23 -26 101 -40 129 -23 25 16 40 -4 67 -89 11 -36
30 -84 43 -107 20 -38 35 -59 93 -132 12 -14 27 -44 33 -66 12 -43 13 -180 3
-260 -6 -44 -12 -52 -49 -78 -23 -15 -40 -33 -37 -40 2 -7 20 -21 39 -31 56
-30 66 -48 67 -113 1 -73 -17 -113 -86 -192 -72 -82 -96 -95 -191 -101 l-79
-5 -29 -43 c-32 -48 -41 -50 -117 -23 -46 16 -56 24 -62 50 -10 37 -22 45 -38
26 -9 -11 -9 -26 0 -66 8 -31 10 -78 7 -118 -4 -36 -3 -71 1 -78 4 -6 28 -20
52 -31 25 -11 58 -34 73 -53 l28 -34 122 -1 c106 0 128 -3 169 -23 26 -12 52
-29 59 -37 27 -32 100 -12 165 47 48 43 95 59 174 59 97 0 106 -40 28 -123
-37 -38 -66 -59 -95 -68 -24 -6 -43 -15 -43 -19 0 -11 55 -20 122 -20 51 0 62
4 83 26 13 14 46 31 76 39 28 8 61 23 73 34 25 24 76 27 134 9 29 -9 42 -20
54 -48 15 -36 14 -43 -18 -168 -18 -73 -39 -141 -47 -152 -11 -16 -12 -30 -5
-60 9 -33 7 -45 -7 -66 -15 -23 -22 -25 -58 -21 -41 4 -107 26 -117 38 -11 14
-51 29 -60 24 -16 -10 -1 -53 70 -190 l66 -130 896 -3 896 -2 -5 57 c-7 82 10
139 50 163 18 11 39 20 49 20 19 0 86 -51 176 -134 59 -55 62 -57 84 -42 12 9
18 16 12 16 -6 0 -21 21 -33 47 -15 31 -49 71 -95 111 -40 35 -81 80 -91 100
-11 20 -34 58 -52 85 -48 71 -63 137 -63 271 0 116 0 117 -26 126 -24 9 -29
38 -6 33 36 -8 47 107 16 173 -16 34 -16 41 -1 103 30 126 29 341 -3 341 -13
0 -22 -87 -15 -143 5 -41 3 -56 -8 -66 -19 -15 -53 0 -61 26 -26 93 -16 146
30 176 l34 22 -2 135 c-2 74 1 154 5 178 7 33 6 42 -5 42 -8 0 -28 12 -46 27
-30 26 -33 35 -42 109 -5 44 -14 92 -21 107 -17 38 5 102 53 148 28 27 38 45
38 67 0 17 5 43 11 59 6 15 14 75 18 133 l6 105 33 3 c27 3 34 -1 42 -23 15
-39 12 -71 -10 -114 -13 -27 -17 -49 -13 -75 6 -37 11 -43 85 -91 l37 -24 39
19 c59 29 64 39 61 132 -1 46 3 115 9 153 7 46 8 84 2 110 -16 67 -12 120 10
148 12 14 30 46 41 71 l20 46 -26 62 c-66 157 -79 264 -44 364 15 44 19 73 15
114 -7 78 8 124 51 144 53 25 128 21 193 -11 30 -16 57 -31 58 -35 2 -5 7 -8
12 -8 5 0 38 -13 73 -30 55 -25 69 -28 95 -19 27 9 31 16 35 57 6 62 10 77 26
96 8 9 10 26 6 45 -6 27 -2 33 36 60 23 17 54 31 68 31 41 0 165 28 228 52 53
19 123 76 123 98 0 10 108 62 165 79 22 7 49 16 60 21 11 4 74 22 140 39 219
57 432 133 499 178 22 15 66 40 96 56 30 15 61 34 70 42 9 8 20 15 24 15 4 0
30 17 59 38 72 52 107 70 155 80 64 15 66 8 59 -186 -6 -160 -8 -172 -45 -287
-22 -66 -45 -145 -52 -175 -7 -30 -16 -64 -20 -75 -5 -11 -23 -58 -41 -105
-18 -47 -37 -89 -41 -95 -5 -5 -21 -29 -36 -52 -28 -43 -102 -127 -118 -134
-8 -4 -53 -53 -99 -110 -52 -64 -91 -128 -151 -250 -37 -73 -79 -146 -94 -162
-29 -31 -60 -120 -60 -171 0 -15 11 -60 24 -99 13 -40 29 -99 36 -132 7 -33
15 -64 19 -70 4 -5 8 -37 10 -70 2 -32 7 -70 12 -83 12 -32 11 -96 -1 -108 -6
-6 -15 -53 -21 -104 -5 -53 -16 -105 -25 -119 -9 -14 -52 -61 -95 -104 -44
-43 -79 -83 -79 -90 0 -6 9 -31 20 -55 19 -43 48 -62 94 -62 98 0 151 -123
151 -353 0 -148 6 -158 68 -129 20 9 37 20 37 25 0 5 6 15 13 22 6 8 35 39 62
70 28 31 74 82 103 112 29 31 55 67 58 80 4 13 9 23 13 23 4 0 12 13 18 30 6
16 22 34 35 39 12 5 50 37 83 70 58 59 91 73 121 53 21 -13 24 -66 11 -177 -9
-76 -10 -142 -4 -215 4 -58 10 -152 12 -209 4 -108 28 -203 48 -196 20 7 91
-49 109 -85 9 -19 21 -56 27 -82 6 -26 25 -67 42 -92 35 -49 38 -71 19 -164
-10 -53 -17 -65 -41 -77 -45 -24 -52 -46 -26 -83 22 -30 23 -31 100 -29 107 3
111 -3 103 -145 l-6 -108 1390 0 1390 0 0 898 c0 742 -3 905 -14 943 -12 40
-12 50 0 74 11 22 14 108 14 475 0 428 -1 450 -21 501 -34 90 -61 143 -90 174
-14 17 -29 46 -33 66 -5 26 -21 50 -56 83 -28 26 -57 61 -66 77 -19 38 -79 98
-126 127 -20 12 -39 29 -42 38 -4 11 -13 13 -28 9 -35 -11 -55 -33 -62 -67 -6
-28 -8 -30 -40 -24 -20 4 -37 2 -41 -4 -10 -16 -50 -12 -68 8 -9 10 -30 79
-47 155 -17 76 -35 149 -41 164 -5 15 -36 50 -68 79 -54 50 -64 66 -86 151 -3
12 -17 38 -31 58 -13 20 -29 57 -35 83 -5 26 -26 76 -46 112 -20 36 -44 90
-55 120 -10 30 -32 71 -48 91 -34 42 -53 140 -54 274 -1 52 -7 92 -17 115 -9
19 -27 80 -39 135 -25 111 -40 168 -65 235 -12 31 -16 67 -13 117 3 62 7 75
31 98 36 37 35 81 -2 193 -16 48 -38 119 -49 157 -24 85 -81 243 -110 306 -12
26 -28 75 -35 110 -8 35 -27 98 -42 139 -16 45 -31 113 -36 170 -30 300 -40
354 -79 437 -44 94 -56 127 -80 223 -45 181 -77 256 -164 395 -53 84 -67 151
-76 350 -5 99 -13 214 -19 256 -21 156 -91 473 -126 569 -32 87 -62 203 -70
276 -4 32 -20 87 -36 121 -16 34 -29 67 -29 73 0 5 -4 10 -9 10 -5 0 -13 10
-17 23 -24 77 -187 388 -246 471 -15 21 -28 43 -28 47 0 4 -18 34 -40 65 -22
32 -40 62 -40 67 0 6 -11 25 -25 43 -14 18 -25 36 -25 41 0 4 -10 19 -22 33
-13 14 -38 43 -57 65 -62 72 -327 315 -344 315 -5 0 -32 17 -60 38 -54 39 -55
40 -138 89 -30 17 -67 41 -84 52 -159 110 -282 169 -410 195 -38 8 -87 22
-108 31 -20 8 -72 22 -114 30 -42 8 -86 21 -99 30 -20 13 -87 15 -472 15 -256
0 -452 -4 -457 -9z m1837 -686 c38 -6 57 -16 98 -54 28 -26 61 -65 73 -87 12
-21 31 -55 42 -74 11 -19 55 -68 98 -110 42 -42 77 -81 77 -87 0 -33 -24 -63
-51 -63 -35 0 -129 35 -161 59 -13 10 -39 23 -59 30 -20 7 -50 23 -65 36 -26
22 -98 45 -143 45 -10 0 -26 9 -35 19 -10 11 -43 29 -74 42 -70 27 -94 48
-111 94 -11 31 -10 39 3 59 18 29 113 83 152 88 70 8 112 9 156 3z m573 -2085
c32 -11 75 -20 96 -20 32 0 45 -8 91 -55 60 -62 77 -109 78 -215 0 -36 5 -96
10 -135 5 -38 9 -268 8 -510 0 -242 0 -458 0 -480 0 -22 -6 -87 -14 -145 -7
-58 -18 -150 -23 -205 -9 -98 -36 -236 -66 -345 -8 -30 -15 -64 -15 -75 0 -11
-9 -39 -20 -60 -12 -22 -28 -65 -37 -95 -14 -47 -79 -191 -115 -255 -7 -11
-25 -46 -40 -79 -16 -32 -35 -65 -43 -72 -7 -7 -23 -30 -36 -51 -85 -141 -446
-504 -556 -558 -28 -14 -71 -44 -96 -65 -25 -22 -48 -40 -52 -40 -4 0 -48 -17
-98 -39 -126 -53 -190 -71 -357 -101 -122 -21 -290 -27 -350 -10 -54 14 -86
19 -210 31 -133 12 -146 18 -240 115 -35 36 -85 80 -110 97 -25 16 -53 37 -62
46 -10 9 -37 32 -61 51 -24 19 -56 52 -73 72 -16 20 -39 42 -51 48 -36 20 -56
81 -50 147 14 148 27 205 52 235 14 16 25 24 25 17 0 -8 11 -10 35 -6 19 3 51
1 72 -5 31 -8 43 -7 70 7 28 15 32 22 27 44 -7 27 -40 60 -61 61 -7 0 -20 11
-29 26 -28 42 -10 49 152 51 80 2 154 8 165 13 26 14 24 42 -5 69 -13 12 -32
40 -42 62 -15 35 -16 42 -3 50 20 12 142 11 219 -3 85 -15 117 -14 138 5 9 8
52 23 94 32 42 9 84 22 94 29 20 15 11 36 -17 36 -11 0 -30 5 -41 11 -11 6
-58 11 -104 12 -91 0 -144 20 -144 55 0 29 -27 46 -130 82 -91 32 -157 43
-349 55 -65 4 -93 25 -67 50 23 23 71 35 143 35 58 0 65 3 107 39 25 22 56 43
68 46 13 4 37 13 53 20 17 7 59 23 95 34 80 26 100 50 74 89 -10 15 -25 34
-34 42 -34 32 -154 217 -169 262 -7 20 -13 99 -14 175 -2 151 -8 130 71 263
26 45 65 177 103 350 15 72 19 113 14 166 -7 76 6 118 60 203 13 20 26 54 29
76 4 22 11 52 17 66 8 20 7 40 -5 78 -13 44 -13 51 0 51 7 0 14 5 14 10 0 6
26 10 58 10 71 0 88 -14 131 -101 41 -84 42 -117 7 -152 -34 -34 -34 -83 0
-145 56 -100 74 -114 158 -126 21 -3 49 -12 62 -21 31 -20 64 -86 64 -128 0
-40 17 -58 83 -86 26 -11 47 -24 47 -29 0 -29 119 -47 247 -37 l97 7 -23 19
c-13 10 -31 19 -41 19 -23 0 -70 42 -70 62 0 9 -4 20 -10 23 -34 21 28 55 100
55 71 0 93 60 35 98 -41 26 -44 46 -12 66 19 12 35 13 107 2 l85 -12 36 -59
c26 -44 46 -64 75 -77 53 -24 105 -23 138 3 25 19 26 25 26 108 0 82 -2 89
-27 112 -37 33 -123 89 -138 89 -7 0 -19 7 -26 16 -12 14 -9 19 16 40 17 13
44 34 60 48 37 29 94 46 160 46 52 0 95 20 95 45 0 15 38 84 55 100 13 12 48
34 56 34 3 1 32 -8 64 -19z m-635 -349 c0 -12 -21 -19 -37 -13 -22 8 -14 22
12 22 14 0 25 -4 25 -9z m-1808 -143 c16 -30 39 -51 73 -70 27 -14 58 -39 69
-53 17 -24 18 -33 8 -87 -6 -33 -18 -69 -27 -78 -17 -18 -47 -115 -38 -123 10
-11 11 -104 2 -149 -18 -81 -77 -187 -151 -268 -56 -62 -83 -106 -156 -249
-78 -156 -95 -181 -162 -250 -143 -146 -155 -167 -134 -236 8 -27 27 -69 43
-94 16 -25 41 -75 57 -111 28 -66 72 -138 106 -176 22 -25 21 -63 -3 -81 -9
-7 -37 -17 -63 -24 -42 -10 -50 -17 -69 -57 -15 -31 -30 -48 -47 -52 -36 -9
-87 15 -105 49 -8 17 -30 51 -47 77 -110 156 -139 287 -118 530 10 113 10 141
-1 162 -15 28 -57 72 -69 72 -5 0 -22 22 -39 49 -18 27 -38 52 -46 55 -8 3
-15 11 -15 19 0 7 -11 24 -25 37 -14 13 -25 32 -25 42 0 10 -3 18 -8 18 -10 0
-47 69 -39 76 3 3 -6 30 -19 61 -13 30 -26 74 -29 99 -2 24 -6 48 -9 53 -5 7
-10 137 -16 374 0 5 -4 6 -9 2 -10 -6 -37 34 -33 48 4 12 -26 8 -32 -5 -5 -10
-7 -10 -12 0 -3 6 -16 12 -29 12 -25 0 -35 -22 -35 -76 0 -25 -6 -33 -35 -47
-20 -9 -37 -17 -40 -17 -3 0 -18 96 -19 130 -2 29 22 74 40 76 11 2 29 -4 41
-12 32 -20 85 -18 111 6 31 29 105 55 197 70 74 12 86 11 158 -9 43 -11 112
-38 155 -60 42 -21 99 -43 125 -50 68 -16 174 -12 217 9 19 9 47 20 62 24 33
8 58 32 58 56 0 11 -16 35 -36 55 -26 27 -34 43 -32 63 3 24 11 30 72 49 75
25 106 46 106 74 0 15 11 23 42 28 3 0 17 -18 30 -41z m2986 -1401 c3 -42 1
-48 -14 -45 -22 4 -52 57 -46 81 3 13 12 17 31 15 24 -3 26 -8 29 -51z m1746
-3040 c7 -12 17 -45 20 -74 6 -44 3 -56 -13 -72 -51 -51 -188 -30 -265 40 -25
23 -46 45 -46 49 0 12 62 39 77 33 8 -3 35 17 64 45 l51 51 49 -24 c27 -14 55
-35 63 -48z m-96 -440 c3 -25 0 -27 -30 -26 -18 0 -42 4 -53 8 -18 7 -15 10
20 29 48 25 59 24 63 -11z m242 -302 c16 -8 38 -34 51 -60 12 -25 34 -52 47
-61 20 -13 23 -22 19 -51 -4 -19 -14 -47 -23 -61 -9 -14 -18 -46 -20 -70 -5
-56 -18 -72 -34 -41 -8 14 -10 44 -7 82 6 71 0 90 -45 140 -37 40 -65 107 -54
126 10 15 32 14 66 -4z"/>
<path d="M7187 6477 c-18 -12 -18 -15 -1 -49 20 -42 56 -60 50 -25 -3 12 -5
29 -5 38 -1 8 -7 23 -14 32 -10 15 -15 16 -30 4z"/>
<path d="M7358 6163 c5 -21 7 -23 10 -9 2 10 0 22 -6 28 -6 6 -7 0 -4 -19z"/>
<path d="M7388 6134 c-5 -10 -4 -55 7 -204 9 -115 -5 -159 -60 -191 -19 -12
-35 -23 -35 -26 0 -3 12 -20 28 -38 15 -18 36 -44 46 -59 35 -49 65 -27 104
74 11 30 27 68 35 84 24 45 31 103 16 139 -7 18 -34 65 -61 105 -26 41 -48 77
-48 81 0 14 -27 44 -32 35z"/>
<path d="M6850 5780 c0 -5 7 -10 15 -10 8 0 15 -7 15 -15 0 -10 14 -17 40 -21
22 -4 40 -10 40 -13 0 -4 34 -15 75 -25 69 -16 118 -16 178 0 48 14 -13 36
-138 49 -35 4 -69 15 -84 26 -17 14 -40 19 -82 19 -33 0 -59 -4 -59 -10z"/>
<path d="M6493 5501 c-9 -15 -9 -22 0 -29 15 -13 63 -4 77 13 8 10 3 15 -21
24 -42 14 -42 14 -56 -8z"/>
<path d="M1575 8264 c-34 -4 -139 -20 -235 -35 -183 -29 -300 -72 -300 -108 0
-16 81 -93 121 -115 19 -10 43 -26 54 -36 47 -40 99 -54 220 -61 148 -8 185
-22 277 -110 152 -146 178 -169 190 -170 48 -4 94 5 105 19 27 36 43 83 53
153 17 125 35 171 100 255 33 43 60 86 60 96 0 21 -53 61 -100 74 -19 6 -64
11 -100 12 -36 2 -96 7 -135 12 -82 10 -267 19 -310 14z"/>
<path d="M43 8068 l-43 -9 0 -407 c0 -401 0 -406 18 -372 11 19 28 39 39 44
26 12 49 96 34 123 -5 10 -12 30 -15 44 -3 14 -15 36 -26 49 -17 20 -20 32
-15 65 4 22 8 59 10 82 5 62 13 81 38 89 12 4 28 15 35 25 7 11 20 19 28 19
13 0 51 24 217 135 31 21 37 31 37 59 0 32 -3 36 -35 42 -19 3 -38 10 -41 15
-7 12 -227 10 -281 -3z"/>
<path d="M1483 7129 c-7 -7 -13 -18 -13 -23 0 -6 -11 -19 -24 -31 -24 -19 -33
-63 -39 -175 -2 -41 12 -110 23 -110 6 0 10 -9 10 -20 0 -11 6 -20 14 -20 8 0
17 -7 20 -16 5 -13 17 -15 59 -12 84 8 110 24 205 121 67 67 93 108 73 115 -6
2 -11 12 -11 23 0 11 -14 28 -32 39 -18 11 -27 20 -20 20 30 0 -1 17 -72 40
-42 14 -76 30 -76 35 0 6 -8 12 -17 13 -10 1 -34 4 -53 7 -22 4 -40 2 -47 -6z"/>
<path d="M1 7011 c-1 -73 1 -82 14 -71 19 16 19 84 0 125 -13 28 -13 25 -14
-54z"/>
<path d="M0 6665 c0 -51 1 -55 19 -46 16 9 17 15 8 56 -14 61 -27 57 -27 -10z"/>
<path d="M5301 2244 c0 -11 3 -14 6 -6 3 7 2 16 -1 19 -3 4 -6 -2 -5 -13z"/>
<path d="M7386 1394 c-3 -9 -1 -34 4 -55 9 -32 15 -39 35 -39 30 0 47 30 43
73 -3 29 -7 32 -39 35 -27 2 -38 -1 -43 -14z"/>
</g>
</svg>
